<mxfile host="Electron" modified="2025-02-28T08:53:59.131Z" agent="Mozilla/5.0 (Windows NT 10.0; Win64; x64) AppleWebKit/537.36 (KHTML, like Gecko) draw.io/24.2.5 Chrome/120.0.6099.109 Electron/28.1.0 Safari/537.36" etag="ObORmCRo4-N9RMpO_S2B" version="24.2.5" type="device">
  <diagram name="第 1 页" id="uM7rG1rAEJj3j9K8cY1Q">
    <mxGraphModel dx="1420" dy="870" grid="1" gridSize="10" guides="1" tooltips="1" connect="1" arrows="1" fold="1" page="1" pageScale="1" pageWidth="1169" pageHeight="827" math="0" shadow="0">
      <root>
        <mxCell id="0" />
        <mxCell id="1" parent="0" />
        <object label="" id="3NTLHKxuh8HJ-k6T6fNB-1">
          <mxCell style="shape=table;startSize=0;container=1;collapsible=0;childLayout=tableLayout;fontSize=16;" vertex="1" parent="1">
            <mxGeometry x="130" y="190" width="960" height="482" as="geometry" />
          </mxCell>
        </object>
        <mxCell id="3NTLHKxuh8HJ-k6T6fNB-2" value="" style="shape=tableRow;horizontal=0;startSize=0;swimlaneHead=0;swimlaneBody=0;strokeColor=inherit;top=0;left=0;bottom=0;right=0;collapsible=0;dropTarget=0;fillColor=none;points=[[0,0.5],[1,0.5]];portConstraint=eastwest;fontSize=16;" vertex="1" parent="3NTLHKxuh8HJ-k6T6fNB-1">
          <mxGeometry width="960" height="40" as="geometry" />
        </mxCell>
        <mxCell id="3NTLHKxuh8HJ-k6T6fNB-3" value="" style="shape=partialRectangle;html=1;whiteSpace=wrap;connectable=0;strokeColor=inherit;overflow=hidden;fillColor=none;top=0;left=0;bottom=0;right=0;pointerEvents=1;fontSize=16;" vertex="1" parent="3NTLHKxuh8HJ-k6T6fNB-2">
          <mxGeometry width="200" height="40" as="geometry">
            <mxRectangle width="200" height="40" as="alternateBounds" />
          </mxGeometry>
        </mxCell>
        <mxCell id="3NTLHKxuh8HJ-k6T6fNB-4" value="客户端" style="shape=partialRectangle;html=1;whiteSpace=wrap;connectable=0;strokeColor=inherit;overflow=hidden;fillColor=none;top=0;left=0;bottom=0;right=0;pointerEvents=1;fontSize=20;fontStyle=1" vertex="1" parent="3NTLHKxuh8HJ-k6T6fNB-2">
          <mxGeometry x="200" width="190" height="40" as="geometry">
            <mxRectangle width="190" height="40" as="alternateBounds" />
          </mxGeometry>
        </mxCell>
        <mxCell id="3NTLHKxuh8HJ-k6T6fNB-5" value="后台管理系统" style="shape=partialRectangle;html=1;whiteSpace=wrap;connectable=0;strokeColor=inherit;overflow=hidden;fillColor=none;top=0;left=0;bottom=0;right=0;pointerEvents=1;fontSize=20;fontStyle=1" vertex="1" parent="3NTLHKxuh8HJ-k6T6fNB-2">
          <mxGeometry x="390" width="300" height="40" as="geometry">
            <mxRectangle width="300" height="40" as="alternateBounds" />
          </mxGeometry>
        </mxCell>
        <mxCell id="3NTLHKxuh8HJ-k6T6fNB-66" value="数据节点" style="shape=partialRectangle;html=1;whiteSpace=wrap;connectable=0;strokeColor=inherit;overflow=hidden;fillColor=none;top=0;left=0;bottom=0;right=0;pointerEvents=1;fontSize=20;fontStyle=1" vertex="1" parent="3NTLHKxuh8HJ-k6T6fNB-2">
          <mxGeometry x="690" width="270" height="40" as="geometry">
            <mxRectangle width="270" height="40" as="alternateBounds" />
          </mxGeometry>
        </mxCell>
        <mxCell id="3NTLHKxuh8HJ-k6T6fNB-6" value="" style="shape=tableRow;horizontal=0;startSize=0;swimlaneHead=0;swimlaneBody=0;strokeColor=inherit;top=0;left=0;bottom=0;right=0;collapsible=0;dropTarget=0;fillColor=none;points=[[0,0.5],[1,0.5]];portConstraint=eastwest;fontSize=16;" vertex="1" parent="3NTLHKxuh8HJ-k6T6fNB-1">
          <mxGeometry y="40" width="960" height="275" as="geometry" />
        </mxCell>
        <mxCell id="3NTLHKxuh8HJ-k6T6fNB-7" value="加入/退出集群" style="shape=partialRectangle;html=1;whiteSpace=wrap;connectable=0;strokeColor=inherit;overflow=hidden;fillColor=none;top=0;left=0;bottom=0;right=0;pointerEvents=1;fontSize=16;" vertex="1" parent="3NTLHKxuh8HJ-k6T6fNB-6">
          <mxGeometry width="200" height="275" as="geometry">
            <mxRectangle width="200" height="275" as="alternateBounds" />
          </mxGeometry>
        </mxCell>
        <mxCell id="3NTLHKxuh8HJ-k6T6fNB-8" value="" style="shape=partialRectangle;html=1;whiteSpace=wrap;connectable=0;strokeColor=inherit;overflow=hidden;fillColor=none;top=0;left=0;bottom=0;right=0;pointerEvents=1;fontSize=16;" vertex="1" parent="3NTLHKxuh8HJ-k6T6fNB-6">
          <mxGeometry x="200" width="190" height="275" as="geometry">
            <mxRectangle width="190" height="275" as="alternateBounds" />
          </mxGeometry>
        </mxCell>
        <mxCell id="3NTLHKxuh8HJ-k6T6fNB-9" value="" style="shape=partialRectangle;html=1;whiteSpace=wrap;connectable=0;strokeColor=inherit;overflow=hidden;fillColor=none;top=0;left=0;bottom=0;right=0;pointerEvents=1;fontSize=16;" vertex="1" parent="3NTLHKxuh8HJ-k6T6fNB-6">
          <mxGeometry x="390" width="300" height="275" as="geometry">
            <mxRectangle width="300" height="275" as="alternateBounds" />
          </mxGeometry>
        </mxCell>
        <mxCell id="3NTLHKxuh8HJ-k6T6fNB-67" style="shape=partialRectangle;html=1;whiteSpace=wrap;connectable=0;strokeColor=inherit;overflow=hidden;fillColor=none;top=0;left=0;bottom=0;right=0;pointerEvents=1;fontSize=16;" vertex="1" parent="3NTLHKxuh8HJ-k6T6fNB-6">
          <mxGeometry x="690" width="270" height="275" as="geometry">
            <mxRectangle width="270" height="275" as="alternateBounds" />
          </mxGeometry>
        </mxCell>
        <mxCell id="3NTLHKxuh8HJ-k6T6fNB-22" value="" style="shape=tableRow;horizontal=0;startSize=0;swimlaneHead=0;swimlaneBody=0;strokeColor=inherit;top=0;left=0;bottom=0;right=0;collapsible=0;dropTarget=0;fillColor=none;points=[[0,0.5],[1,0.5]];portConstraint=eastwest;fontSize=16;" vertex="1" parent="3NTLHKxuh8HJ-k6T6fNB-1">
          <mxGeometry y="315" width="960" height="56" as="geometry" />
        </mxCell>
        <mxCell id="3NTLHKxuh8HJ-k6T6fNB-23" value="心跳检测" style="shape=partialRectangle;html=1;whiteSpace=wrap;connectable=0;strokeColor=inherit;overflow=hidden;fillColor=none;top=0;left=0;bottom=0;right=0;pointerEvents=1;fontSize=16;" vertex="1" parent="3NTLHKxuh8HJ-k6T6fNB-22">
          <mxGeometry width="200" height="56" as="geometry">
            <mxRectangle width="200" height="56" as="alternateBounds" />
          </mxGeometry>
        </mxCell>
        <mxCell id="3NTLHKxuh8HJ-k6T6fNB-24" value="" style="shape=partialRectangle;html=1;whiteSpace=wrap;connectable=0;strokeColor=inherit;overflow=hidden;fillColor=none;top=0;left=0;bottom=0;right=0;pointerEvents=1;fontSize=16;" vertex="1" parent="3NTLHKxuh8HJ-k6T6fNB-22">
          <mxGeometry x="200" width="190" height="56" as="geometry">
            <mxRectangle width="190" height="56" as="alternateBounds" />
          </mxGeometry>
        </mxCell>
        <mxCell id="3NTLHKxuh8HJ-k6T6fNB-25" value="" style="shape=partialRectangle;html=1;whiteSpace=wrap;connectable=0;strokeColor=inherit;overflow=hidden;fillColor=none;top=0;left=0;bottom=0;right=0;pointerEvents=1;fontSize=16;" vertex="1" parent="3NTLHKxuh8HJ-k6T6fNB-22">
          <mxGeometry x="390" width="300" height="56" as="geometry">
            <mxRectangle width="300" height="56" as="alternateBounds" />
          </mxGeometry>
        </mxCell>
        <mxCell id="3NTLHKxuh8HJ-k6T6fNB-68" style="shape=partialRectangle;html=1;whiteSpace=wrap;connectable=0;strokeColor=inherit;overflow=hidden;fillColor=none;top=0;left=0;bottom=0;right=0;pointerEvents=1;fontSize=16;" vertex="1" parent="3NTLHKxuh8HJ-k6T6fNB-22">
          <mxGeometry x="690" width="270" height="56" as="geometry">
            <mxRectangle width="270" height="56" as="alternateBounds" />
          </mxGeometry>
        </mxCell>
        <mxCell id="3NTLHKxuh8HJ-k6T6fNB-75" value="" style="rounded=1;whiteSpace=wrap;html=1;" vertex="1" parent="3NTLHKxuh8HJ-k6T6fNB-22">
          <mxGeometry x="960" width="NaN" height="56" as="geometry">
            <mxRectangle width="NaN" height="56" as="alternateBounds" />
          </mxGeometry>
        </mxCell>
        <mxCell id="3NTLHKxuh8HJ-k6T6fNB-77" value="" style="rounded=1;whiteSpace=wrap;html=1;" vertex="1" parent="3NTLHKxuh8HJ-k6T6fNB-22">
          <mxGeometry width="NaN" height="56" as="geometry">
            <mxRectangle width="NaN" height="56" as="alternateBounds" />
          </mxGeometry>
        </mxCell>
        <mxCell id="3NTLHKxuh8HJ-k6T6fNB-18" value="" style="shape=tableRow;horizontal=0;startSize=0;swimlaneHead=0;swimlaneBody=0;strokeColor=inherit;top=0;left=0;bottom=0;right=0;collapsible=0;dropTarget=0;fillColor=none;points=[[0,0.5],[1,0.5]];portConstraint=eastwest;fontSize=16;" vertex="1" parent="3NTLHKxuh8HJ-k6T6fNB-1">
          <mxGeometry y="371" width="960" height="56" as="geometry" />
        </mxCell>
        <mxCell id="3NTLHKxuh8HJ-k6T6fNB-19" value="文件下载" style="shape=partialRectangle;html=1;whiteSpace=wrap;connectable=0;strokeColor=inherit;overflow=hidden;fillColor=none;top=0;left=0;bottom=0;right=0;pointerEvents=1;fontSize=16;" vertex="1" parent="3NTLHKxuh8HJ-k6T6fNB-18">
          <mxGeometry width="200" height="56" as="geometry">
            <mxRectangle width="200" height="56" as="alternateBounds" />
          </mxGeometry>
        </mxCell>
        <mxCell id="3NTLHKxuh8HJ-k6T6fNB-20" value="" style="shape=partialRectangle;html=1;whiteSpace=wrap;connectable=0;strokeColor=inherit;overflow=hidden;fillColor=none;top=0;left=0;bottom=0;right=0;pointerEvents=1;fontSize=16;" vertex="1" parent="3NTLHKxuh8HJ-k6T6fNB-18">
          <mxGeometry x="200" width="190" height="56" as="geometry">
            <mxRectangle width="190" height="56" as="alternateBounds" />
          </mxGeometry>
        </mxCell>
        <mxCell id="3NTLHKxuh8HJ-k6T6fNB-21" value="" style="shape=partialRectangle;html=1;whiteSpace=wrap;connectable=0;strokeColor=inherit;overflow=hidden;fillColor=none;top=0;left=0;bottom=0;right=0;pointerEvents=1;fontSize=16;" vertex="1" parent="3NTLHKxuh8HJ-k6T6fNB-18">
          <mxGeometry x="390" width="300" height="56" as="geometry">
            <mxRectangle width="300" height="56" as="alternateBounds" />
          </mxGeometry>
        </mxCell>
        <mxCell id="3NTLHKxuh8HJ-k6T6fNB-69" style="shape=partialRectangle;html=1;whiteSpace=wrap;connectable=0;strokeColor=inherit;overflow=hidden;fillColor=none;top=0;left=0;bottom=0;right=0;pointerEvents=1;fontSize=16;" vertex="1" parent="3NTLHKxuh8HJ-k6T6fNB-18">
          <mxGeometry x="690" width="270" height="56" as="geometry">
            <mxRectangle width="270" height="56" as="alternateBounds" />
          </mxGeometry>
        </mxCell>
        <mxCell id="3NTLHKxuh8HJ-k6T6fNB-10" value="" style="shape=tableRow;horizontal=0;startSize=0;swimlaneHead=0;swimlaneBody=0;strokeColor=inherit;top=0;left=0;bottom=0;right=0;collapsible=0;dropTarget=0;fillColor=none;points=[[0,0.5],[1,0.5]];portConstraint=eastwest;fontSize=16;" vertex="1" parent="3NTLHKxuh8HJ-k6T6fNB-1">
          <mxGeometry y="427" width="960" height="55" as="geometry" />
        </mxCell>
        <mxCell id="3NTLHKxuh8HJ-k6T6fNB-11" value="" style="shape=partialRectangle;html=1;whiteSpace=wrap;connectable=0;strokeColor=inherit;overflow=hidden;fillColor=none;top=0;left=0;bottom=0;right=0;pointerEvents=1;fontSize=16;" vertex="1" parent="3NTLHKxuh8HJ-k6T6fNB-10">
          <mxGeometry width="200" height="55" as="geometry">
            <mxRectangle width="200" height="55" as="alternateBounds" />
          </mxGeometry>
        </mxCell>
        <mxCell id="3NTLHKxuh8HJ-k6T6fNB-12" value="" style="shape=partialRectangle;html=1;whiteSpace=wrap;connectable=0;strokeColor=inherit;overflow=hidden;fillColor=none;top=0;left=0;bottom=0;right=0;pointerEvents=1;fontSize=16;" vertex="1" parent="3NTLHKxuh8HJ-k6T6fNB-10">
          <mxGeometry x="200" width="190" height="55" as="geometry">
            <mxRectangle width="190" height="55" as="alternateBounds" />
          </mxGeometry>
        </mxCell>
        <mxCell id="3NTLHKxuh8HJ-k6T6fNB-13" value="" style="shape=partialRectangle;html=1;whiteSpace=wrap;connectable=0;strokeColor=inherit;overflow=hidden;fillColor=none;top=0;left=0;bottom=0;right=0;pointerEvents=1;fontSize=16;" vertex="1" parent="3NTLHKxuh8HJ-k6T6fNB-10">
          <mxGeometry x="390" width="300" height="55" as="geometry">
            <mxRectangle width="300" height="55" as="alternateBounds" />
          </mxGeometry>
        </mxCell>
        <mxCell id="3NTLHKxuh8HJ-k6T6fNB-70" style="shape=partialRectangle;html=1;whiteSpace=wrap;connectable=0;strokeColor=inherit;overflow=hidden;fillColor=none;top=0;left=0;bottom=0;right=0;pointerEvents=1;fontSize=16;" vertex="1" parent="3NTLHKxuh8HJ-k6T6fNB-10">
          <mxGeometry x="690" width="270" height="55" as="geometry">
            <mxRectangle width="270" height="55" as="alternateBounds" />
          </mxGeometry>
        </mxCell>
        <mxCell id="3NTLHKxuh8HJ-k6T6fNB-83" style="edgeStyle=orthogonalEdgeStyle;rounded=0;orthogonalLoop=1;jettySize=auto;html=1;exitX=1;exitY=0.5;exitDx=0;exitDy=0;entryX=0;entryY=0.5;entryDx=0;entryDy=0;" edge="1" parent="1" source="3NTLHKxuh8HJ-k6T6fNB-71" target="3NTLHKxuh8HJ-k6T6fNB-72">
          <mxGeometry relative="1" as="geometry" />
        </mxCell>
        <mxCell id="3NTLHKxuh8HJ-k6T6fNB-71" value="新建节点" style="rounded=1;whiteSpace=wrap;html=1;fillColor=#ffe6cc;strokeColor=#d79b00;" vertex="1" parent="1">
          <mxGeometry x="685" y="310" width="70" height="30" as="geometry" />
        </mxCell>
        <mxCell id="3NTLHKxuh8HJ-k6T6fNB-84" style="edgeStyle=orthogonalEdgeStyle;rounded=0;orthogonalLoop=1;jettySize=auto;html=1;exitX=0.5;exitY=1;exitDx=0;exitDy=0;entryX=1;entryY=0.5;entryDx=0;entryDy=0;" edge="1" parent="1" source="3NTLHKxuh8HJ-k6T6fNB-72" target="3NTLHKxuh8HJ-k6T6fNB-74">
          <mxGeometry relative="1" as="geometry" />
        </mxCell>
        <mxCell id="3NTLHKxuh8HJ-k6T6fNB-72" value="获取节点信息" style="rounded=1;whiteSpace=wrap;html=1;fillColor=#fff2cc;strokeColor=#d6b656;" vertex="1" parent="1">
          <mxGeometry x="860" y="310" width="100" height="30" as="geometry" />
        </mxCell>
        <mxCell id="3NTLHKxuh8HJ-k6T6fNB-82" style="edgeStyle=orthogonalEdgeStyle;rounded=0;orthogonalLoop=1;jettySize=auto;html=1;exitX=0.5;exitY=1;exitDx=0;exitDy=0;entryX=0.5;entryY=0;entryDx=0;entryDy=0;" edge="1" parent="1" source="3NTLHKxuh8HJ-k6T6fNB-73" target="3NTLHKxuh8HJ-k6T6fNB-71">
          <mxGeometry relative="1" as="geometry" />
        </mxCell>
        <mxCell id="3NTLHKxuh8HJ-k6T6fNB-73" value="申请添加" style="rounded=1;whiteSpace=wrap;html=1;fillColor=#d5e8d4;strokeColor=#82b366;" vertex="1" parent="1">
          <mxGeometry x="685" y="260" width="70" height="30" as="geometry" />
        </mxCell>
        <mxCell id="3NTLHKxuh8HJ-k6T6fNB-76" value="" style="edgeStyle=orthogonalEdgeStyle;rounded=0;orthogonalLoop=1;jettySize=auto;html=1;" edge="1" parent="1" source="3NTLHKxuh8HJ-k6T6fNB-74" target="3NTLHKxuh8HJ-k6T6fNB-75">
          <mxGeometry relative="1" as="geometry" />
        </mxCell>
        <mxCell id="3NTLHKxuh8HJ-k6T6fNB-78" value="" style="edgeStyle=orthogonalEdgeStyle;rounded=0;orthogonalLoop=1;jettySize=auto;html=1;" edge="1" parent="1" source="3NTLHKxuh8HJ-k6T6fNB-80" target="3NTLHKxuh8HJ-k6T6fNB-77">
          <mxGeometry relative="1" as="geometry" />
        </mxCell>
        <mxCell id="3NTLHKxuh8HJ-k6T6fNB-85" style="edgeStyle=orthogonalEdgeStyle;rounded=0;orthogonalLoop=1;jettySize=auto;html=1;exitX=0.5;exitY=1;exitDx=0;exitDy=0;entryX=0.5;entryY=0;entryDx=0;entryDy=0;" edge="1" parent="1" source="3NTLHKxuh8HJ-k6T6fNB-74" target="3NTLHKxuh8HJ-k6T6fNB-80">
          <mxGeometry relative="1" as="geometry" />
        </mxCell>
        <mxCell id="3NTLHKxuh8HJ-k6T6fNB-86" style="edgeStyle=orthogonalEdgeStyle;rounded=0;orthogonalLoop=1;jettySize=auto;html=1;exitX=0;exitY=0.5;exitDx=0;exitDy=0;entryX=1;entryY=0.5;entryDx=0;entryDy=0;" edge="1" parent="1" source="3NTLHKxuh8HJ-k6T6fNB-74" target="3NTLHKxuh8HJ-k6T6fNB-81">
          <mxGeometry relative="1" as="geometry" />
        </mxCell>
        <mxCell id="3NTLHKxuh8HJ-k6T6fNB-89" value="否" style="edgeLabel;html=1;align=center;verticalAlign=middle;resizable=0;points=[];" vertex="1" connectable="0" parent="3NTLHKxuh8HJ-k6T6fNB-86">
          <mxGeometry x="-0.36" y="2" relative="1" as="geometry">
            <mxPoint x="-4" y="-2" as="offset" />
          </mxGeometry>
        </mxCell>
        <mxCell id="3NTLHKxuh8HJ-k6T6fNB-74" value="连通？" style="rhombus;whiteSpace=wrap;html=1;" vertex="1" parent="1">
          <mxGeometry x="690" y="360" width="60" height="30" as="geometry" />
        </mxCell>
        <mxCell id="3NTLHKxuh8HJ-k6T6fNB-81" value="新建失败" style="rounded=1;whiteSpace=wrap;html=1;fillColor=#647687;fontColor=#ffffff;strokeColor=#314354;" vertex="1" parent="1">
          <mxGeometry x="570" y="360" width="70" height="30" as="geometry" />
        </mxCell>
        <mxCell id="3NTLHKxuh8HJ-k6T6fNB-87" value="" style="edgeStyle=orthogonalEdgeStyle;rounded=0;orthogonalLoop=1;jettySize=auto;html=1;" edge="1" parent="1" source="3NTLHKxuh8HJ-k6T6fNB-74" target="3NTLHKxuh8HJ-k6T6fNB-80">
          <mxGeometry relative="1" as="geometry">
            <mxPoint x="720" y="390" as="sourcePoint" />
            <mxPoint x="NaN" y="561" as="targetPoint" />
          </mxGeometry>
        </mxCell>
        <mxCell id="3NTLHKxuh8HJ-k6T6fNB-88" value="是" style="edgeLabel;html=1;align=center;verticalAlign=middle;resizable=0;points=[];" vertex="1" connectable="0" parent="3NTLHKxuh8HJ-k6T6fNB-87">
          <mxGeometry x="0.36" y="-1" relative="1" as="geometry">
            <mxPoint as="offset" />
          </mxGeometry>
        </mxCell>
        <mxCell id="3NTLHKxuh8HJ-k6T6fNB-80" value="新建成功" style="rounded=1;whiteSpace=wrap;html=1;fillColor=#60a917;fontColor=#ffffff;strokeColor=#2D7600;" vertex="1" parent="1">
          <mxGeometry x="685" y="420" width="70" height="30" as="geometry" />
        </mxCell>
      </root>
    </mxGraphModel>
  </diagram>
</mxfile>
